<svg width="340" height="340" viewBox="0 0 340 340" fill="none" xmlns="http://www.w3.org/2000/svg">
<g clip-path="url(#clip0_2_3)">
<path d="M76.429 290L80 340H170V290H76.429Z" fill="#DEDDE0"/>
<path d="M170 80H61.429L65 130H170V80Z" fill="#DEDDE0"/>
<path d="M170 290V340H260L263.571 290H170Z" fill="#ECECEC"/>
<path d="M170 80V130H275L278.571 80H170Z" fill="#ECECEC"/>
<path d="M170 260C147.909 260 130 237.614 130 210C130 182.386 147.909 160 170 160V130H65H50L60 290H76.429H170V260Z" fill="#4664FE"/>
<path d="M170 130V160C192.091 160 210 182.386 210 210C210 237.614 192.091 260 170 260V290H263.571H280L290 130H275H170Z" fill="#1137FF"/>
<path d="M210 210C210 182.386 192.091 160 170 160V260C192.091 260 210 237.614 210 210Z" fill="#50412E"/>
<path d="M130 210C130 237.614 147.909 260 170 260V160C147.909 160 130 182.386 130 210Z" fill="#786145"/>
<path d="M278.571 80H300V40H260V0H80V40H40V80H61.429H170H278.571Z" fill="#C50000"/>
<line x1="278.498" y1="80.0399" x2="274.498" y2="130.04" stroke="black"/>
<line x1="263.498" y1="289.039" x2="259.498" y2="340.039" stroke="black"/>
<line x1="169" y1="339.5" x2="259" y2="339.5" stroke="black"/>
<line x1="80" y1="339.5" x2="170" y2="339.5" stroke="black"/>
<line x1="79.5016" y1="340.04" x2="75.5016" y2="290.04" stroke="black"/>
<line x1="64.5009" y1="130.03" x2="61.5009" y2="80.0299" stroke="black"/>
<path d="M220 210C220 203.884 218.9 198.025 216.89 192.609L170 190.435L123.11 192.609C121.1 198.025 120 203.884 120 210C120 216.116 121.1 221.975 123.11 227.391L170 229.565L216.89 227.391C218.9 221.975 220 216.116 220 210Z" fill="#F0F0F0"/>
<path d="M170 260C191.498 260 209.825 246.431 216.89 227.391H123.11C130.175 246.431 148.502 260 170 260Z" fill="#0052B4"/>
<path d="M123.11 192.609H216.89C209.825 173.569 191.498 160 170 160C148.502 160 130.175 173.569 123.11 192.609Z" fill="#D80027"/>
<path d="M183.044 194.783H174.348L175.797 183.913L181.594 179.565L187.391 183.913V192.609L183.044 194.783Z" fill="#338AF3"/>
<path d="M156.956 194.783H165.652L164.203 183.913L158.406 179.565L152.609 183.913V192.609L156.956 194.783Z" fill="#338AF3"/>
<path d="M175.797 194.783H164.203V183.913L170 179.565L175.797 183.913V194.783Z" fill="#0052B4"/>
<path d="M152.609 192.609V216.522C152.609 222.216 155.359 227.279 159.601 230.454L162.645 229.692L166.486 233.556C167.621 233.79 168.796 233.913 170 233.913C171.197 233.913 172.367 233.792 173.496 233.56L177.881 229.91L180.399 230.447C184.639 227.273 187.391 222.214 187.391 216.522V192.609H152.609Z" fill="#F0F0F0"/>
<path d="M159.565 192.609H152.609V199.565H159.565V192.609Z" fill="#D80027"/>
<path d="M173.478 192.609H166.522V199.565H173.478V192.609Z" fill="#D80027"/>
<path d="M187.391 192.609H180.435V199.565H187.391V192.609Z" fill="#D80027"/>
<path d="M166.522 199.565H159.565V206.522H166.522V199.565Z" fill="#D80027"/>
<path d="M180.435 199.565H173.478V206.522H180.435V199.565Z" fill="#D80027"/>
<path d="M159.565 206.52H152.609V213.476H159.565V206.52Z" fill="#D80027"/>
<path d="M166.522 213.476H159.565V220.433H166.522V213.476Z" fill="#D80027"/>
<path d="M173.478 206.52H166.522V213.476H173.478V206.52Z" fill="#D80027"/>
<path d="M187.391 206.52H180.435V213.476H187.391V206.52Z" fill="#D80027"/>
<path d="M180.435 213.476H173.478V220.433H180.435V213.476Z" fill="#D80027"/>
<path d="M173.478 220.433H166.522V227.389H173.478V220.433Z" fill="#D80027"/>
<path d="M159.565 220.433H153.058C153.654 223.019 154.828 225.385 156.437 227.39H159.565V220.433V220.433Z" fill="#D80027"/>
<path d="M180.435 227.39H183.563C185.172 225.386 186.345 223.019 186.942 220.433H180.435V227.39V227.39Z" fill="#D80027"/>
<path d="M159.565 227.39V230.425C161.588 231.948 163.953 233.039 166.522 233.563V227.39H159.565V227.39Z" fill="#D80027"/>
<path d="M173.478 227.39V233.563C176.047 233.04 178.412 231.948 180.435 230.425V227.39H173.478V227.39Z" fill="#D80027"/>
</g>
<defs>
<clipPath id="clip0_2_3">
<rect width="340" height="340" fill="white"/>
</clipPath>
</defs>
</svg>
